<svg xmlns="http://www.w3.org/2000/svg" viewBox="0 0 612 612.03"><defs><style>.cls-1{fill:#ef3124;}</style></defs><g id="Слой_2" data-name="Слой 2"><g id="Capa_1" data-name="Capa 1"><path class="cls-1" d="M500.75,9.11s-20.5-20.5-41,0L41.06,427.79,30.39,438.46,147,555.09h0l17.09,17.09,9.46,9.46L194,561.19l0,0L521.14,234l0,0,20.44-20.44,0,0,61.31-61.31c20.5-20.5,0-41,0-41ZM173.45,540.66,71.34,438.55,398.52,111.34,500.63,213.45ZM521.08,193,419,90.92l61.31-61.3L582.39,131.73Z"/><polygon class="cls-1" points="39.56 572.44 61.08 469.18 30.05 438.15 0 612.03 173.51 581.58 164.08 572.18 147.02 555.09 39.56 572.44"/></g></g></svg>