<svg xmlns="http://www.w3.org/2000/svg" viewBox="0 0 631.96 640.58"><defs><style>.cls-1{fill:#ef3124;}</style></defs><g id="Слой_2" data-name="Слой 2"><g id="Слой_1-2" data-name="Слой 1"><path class="cls-1" d="M6.8,419.79c11.58,33.19,26.21,62,44.11,87a321.61,321.61,0,0,0,189.5,126.09c33.18,7.58,73,9.69,109.07,5.86,17.57-1.86,60.29-12.4,76.71-18.92,80.13-31.71,141.17-89.09,177-166.32,17.22-37.11,27.25-79.13,28.49-118.78,1.11-36-1.22-60.06-9-91.61C601.06,155.31,542.05,79.74,462.36,37.7,415.22,12.76,367.33.67,313.51,0c-16.95-.25-21,.54-25.62,5.09C282,10.9,284,23,291.33,26.62a86.05,86.05,0,0,0,10.93,3.8c65.48,17.84,120.9,61.75,151.86,120.44,11.14,20.94,14.86,31,21.14,56.07,5.89,23.89,7.36,34.85,7.6,56.32.73,60.59-22.65,121.15-64.36,166.66-19.62,21.52-45.95,41.3-71.24,53.61-37,18.1-82.91,27.56-121.54,25a348.16,348.16,0,0,1-39.54-5.8C120,487.65,64.56,447.26,29.28,388.6,23,378.3,20.3,376,14.09,375.87,5.9,375.62-.16,382,0,390.57,0,394.89,4.08,412.12,6.8,419.79Z"/></g></g></svg>