<svg xmlns="http://www.w3.org/2000/svg" viewBox="0 0 565.55 930.57"><defs><style>.cls-1{fill:#c1c1c1;}.cls-2{fill:#ea3939;}</style></defs><g id="Слой_2" data-name="Слой 2"><g id="Objects"><path class="cls-1" d="M282.77,930.57a19.22,19.22,0,0,1-19.22-19.22V559A19.23,19.23,0,1,1,302,559v352.4A19.22,19.22,0,0,1,282.77,930.57Z"/><path class="cls-2" d="M565.55,586.27H0a131,131,0,0,1,35.92-90.73,120.06,120.06,0,0,1,75.8-37.07l49-331.66A120.55,120.55,0,0,1,92.73,90.73,130.92,130.92,0,0,1,56.81,0H508.75c0,64.18-45.05,117.35-103.88,126.81l48.95,331.66C516.44,464.25,565.55,519.26,565.55,586.27Z"/></g></g></svg>