<svg xmlns="http://www.w3.org/2000/svg" viewBox="0 0 429.5 871.04"><defs><style>.cls-1{fill:#d6d6d6;}.cls-2{fill:#e23737;}.cls-3{fill:#f96f5d;}</style></defs><g id="Слой_2" data-name="Слой 2"><g id="Objects"><path class="cls-1" d="M247.66,359.93V716.39c0,51.32-13.65,114.66-27,150.53a6.31,6.31,0,0,1-11.84,0c-13.34-35.87-27-99.21-27-150.53V359.93Z"/><circle class="cls-2" cx="214.75" cy="214.75" r="214.75"/><path class="cls-3" d="M214,72.56a33.88,33.88,0,0,1-23.71,39.68c-21.1,6-40.4,16.23-58.92,30.17a184.37,184.37,0,0,0-58.88,76.41A13.24,13.24,0,0,1,60.65,227h0A13.26,13.26,0,0,1,46.93,213.3,184,184,0,0,1,93.8,97.5c21.34-23.56,46.92-41.15,75.88-50.92a34.09,34.09,0,0,1,44.16,25.3Z"/></g></g></svg>