<svg xmlns="http://www.w3.org/2000/svg" viewBox="0 0 612 612"><defs><style>.cls-1{fill:#ef3124;}</style></defs><g id="Слой_2" data-name="Слой 2"><g id="Capa_1" data-name="Capa 1"><g id="_7" data-name="7"><path class="cls-1" d="M76.5,286.88H19.12a19.12,19.12,0,0,0,0,38.24H76.5a19.12,19.12,0,0,0,0-38.24ZM306,95.62A19.12,19.12,0,0,0,325.12,76.5V19.12a19.12,19.12,0,0,0-38.24,0V76.5A19.12,19.12,0,0,0,306,95.62Zm184,53.17,40.18-40.18a18.94,18.94,0,0,0-26.79-26.79L463.21,122A18.94,18.94,0,0,0,490,148.79ZM141.72,443.51l-40.19,40.18a19,19,0,1,0,26.8,26.8l40.18-40.19a18.94,18.94,0,1,0-26.79-26.79ZM130.2,157.25a19.12,19.12,0,1,0,27-27.05L116.68,89.62a19.12,19.12,0,0,0-27,27ZM306,516.38a19.12,19.12,0,0,0-19.12,19.12v57.38a19.12,19.12,0,1,0,38.24,0V535.5A19.12,19.12,0,0,0,306,516.38Zm175.8-61.63a19.13,19.13,0,1,0-27.05,27.05l40.57,40.56a19.12,19.12,0,1,0,27-27ZM592.88,286.88H535.5a19.12,19.12,0,0,0,0,38.24h57.38a19.12,19.12,0,1,0,0-38.24ZM306,133.76A172.24,172.24,0,1,0,478.24,306,172.23,172.23,0,0,0,306,133.76Zm0,306.08A133.84,133.84,0,1,1,439.84,306,133.84,133.84,0,0,1,306,439.84Z"/></g></g></g></svg>