<svg xmlns="http://www.w3.org/2000/svg" viewBox="0 0 29 29"><defs><style>.cls-1{fill:#ef3124;}</style></defs><g id="Слой_2" data-name="Слой 2"><g id="Слой_1-2" data-name="Слой 1"><g id="globe_sphere" data-name="globe sphere"><path class="cls-1" d="M14.5,7.12a35.75,35.75,0,0,1-8.12-.94.5.5,0,1,1,.23-1,34.82,34.82,0,0,0,17.67-.5.5.5,0,0,1,.63.34.51.51,0,0,1-.34.62A35.75,35.75,0,0,1,14.5,7.12Z"/><path class="cls-1" d="M24.42,24.32l-.14,0a34.8,34.8,0,0,0-19.56,0A.5.5,0,0,1,4.1,24a.5.5,0,0,1,.33-.62,35.75,35.75,0,0,1,20.14,0,.5.5,0,0,1-.15,1Z"/><path class="cls-1" d="M13.89,28.6a.47.47,0,0,1-.28-.09,17,17,0,0,1-7.46-14,16.78,16.78,0,0,1,5-12,.5.5,0,0,1,.71,0,.51.51,0,0,1,0,.71A15.79,15.79,0,0,0,7.15,14.5a16,16,0,0,0,7,13.18.5.5,0,0,1-.28.92Z"/><path class="cls-1" d="M15.15,28.6a.5.5,0,0,1-.41-.22.51.51,0,0,1,.13-.7,15.88,15.88,0,0,0,0-26.36.51.51,0,0,1-.13-.7.51.51,0,0,1,.7-.13,16.9,16.9,0,0,1,0,28A.52.52,0,0,1,15.15,28.6Z"/><path class="cls-1" d="M14.5,28.45A.5.5,0,0,1,14,28V1.05a.5.5,0,0,1,1,0V28A.5.5,0,0,1,14.5,28.45Z"/><path class="cls-1" d="M28.45,15H2.55a.5.5,0,0,1,0-1h25.9a.5.5,0,1,1,0,1Z"/><path class="cls-1" d="M14.5,29A14.51,14.51,0,0,1,3.6,4.93a.5.5,0,1,1,.75.67A13.42,13.42,0,1,0,6.12,3.91a.49.49,0,0,1-.7-.08.5.5,0,0,1,.08-.7A14.32,14.32,0,0,1,14.5,0a14.5,14.5,0,0,1,0,29Z"/></g></g></g></svg>