<svg xmlns="http://www.w3.org/2000/svg" viewBox="0 0 15 17"><defs><style>.cls-1{fill:#ef3124;}</style></defs><g id="Слой_2" data-name="Слой 2"><g id="Слой_1-2" data-name="Слой 1"><path class="cls-1" d="M2,0A2,2,0,0,0,0,2V14a2,2,0,0,0,2,2H6.26a5.09,5.09,0,0,1-.66-1H2a1,1,0,0,1-1-1V2A1,1,0,0,1,2,1h8a1,1,0,0,1,1,1V7a5.52,5.52,0,0,1,1,.19V2a2,2,0,0,0-2-2ZM4,8A1,1,0,1,1,3,7,1,1,0,0,1,4,8Zm6.5,9A4.5,4.5,0,1,0,6,12.5,4.49,4.49,0,0,0,10.5,17Zm.35-2.15a.49.49,0,0,1-.7-.7L11.29,13H8.5a.5.5,0,0,1,0-1h2.79l-1.14-1.15a.49.49,0,0,1,.7-.7l2,2a.36.36,0,0,1,.11.16.41.41,0,0,1,0,.19h0a.41.41,0,0,1,0,.19.54.54,0,0,1-.1.16h0Z"/></g></g></svg>